<?xml version="1.0" standalone="no"?>
<!DOCTYPE svg PUBLIC "-//W3C//DTD SVG 20010904//EN"
 "http://www.w3.org/TR/2001/REC-SVG-20010904/DTD/svg10.dtd">
<svg version="1.0" xmlns="http://www.w3.org/2000/svg"
 width="1946.000000pt" height="1946.000000pt" viewBox="0 0 1946.000000 1946.000000"
 preserveAspectRatio="xMidYMid meet">
<metadata>
Created by potrace 1.14, written by Peter Selinger 2001-2017
</metadata>
<g transform="translate(0.000000,1946.000000) scale(0.100000,-0.100000)"
fill="#000000" stroke="none">
<path d="M9515 18622 c-2 -2 -39 -6 -82 -7 -215 -10 -449 -28 -523 -40 -14 -2
-54 -6 -90 -10 -36 -3 -76 -8 -90 -10 -61 -11 -98 -17 -135 -21 -22 -2 -51 -6
-65 -9 -24 -5 -63 -11 -125 -20 -16 -2 -41 -7 -55 -10 -14 -3 -50 -9 -80 -15
-52 -9 -68 -12 -130 -25 -115 -25 -168 -36 -185 -39 -11 -2 -38 -9 -60 -14
-22 -6 -51 -13 -65 -16 -14 -3 -63 -15 -110 -26 -47 -12 -112 -27 -145 -35
-33 -8 -74 -19 -90 -25 -17 -6 -32 -11 -35 -10 -13 2 -100 -25 -100 -31 0 -4
-9 -5 -20 -2 -12 3 -20 0 -20 -6 0 -7 -4 -10 -8 -7 -8 5 -163 -38 -192 -53 -9
-5 -31 -12 -50 -16 -19 -4 -39 -11 -45 -15 -5 -4 -26 -11 -45 -15 -19 -4 -39
-10 -44 -13 -8 -4 -180 -67 -211 -76 -5 -2 -22 -8 -37 -14 -42 -18 -72 -29
-80 -31 -4 -1 -45 -18 -90 -37 -46 -20 -87 -37 -93 -38 -5 -1 -27 -10 -49 -19
-21 -9 -40 -17 -41 -17 -2 0 -34 -14 -72 -32 -83 -38 -73 -34 -100 -43 -13 -4
-23 -11 -23 -16 0 -5 -7 -9 -15 -9 -8 0 -23 -4 -33 -10 -37 -20 -192 -90 -198
-89 -4 0 -10 -3 -13 -8 -3 -4 -37 -23 -76 -42 -38 -19 -72 -37 -75 -40 -3 -3
-25 -16 -50 -29 -25 -12 -67 -35 -95 -50 -27 -16 -81 -45 -118 -66 -160 -87
-291 -166 -295 -178 -2 -4 -8 -8 -14 -8 -5 0 -45 -25 -89 -55 -44 -30 -83 -55
-88 -55 -5 0 -11 -3 -13 -7 -4 -11 -88 -68 -110 -76 -10 -4 -18 -11 -18 -17 0
-5 -7 -10 -15 -10 -8 0 -15 -4 -15 -10 0 -5 -7 -10 -15 -10 -8 0 -15 -4 -15
-10 0 -5 -7 -10 -15 -10 -9 0 -18 -7 -21 -15 -4 -8 -10 -15 -15 -15 -10 0
-193 -131 -197 -142 -2 -5 -10 -8 -17 -8 -7 0 -15 -3 -17 -7 -1 -5 -30 -28
-63 -52 -62 -46 -232 -178 -251 -196 -6 -5 -33 -28 -59 -50 -27 -22 -54 -46
-62 -53 -7 -7 -13 -11 -13 -8 0 3 -13 -7 -29 -22 -16 -15 -62 -56 -102 -92
-40 -36 -87 -79 -105 -97 -18 -17 -34 -29 -37 -27 -3 3 -8 -4 -12 -15 -3 -12
-11 -21 -16 -21 -12 0 -318 -307 -444 -444 -49 -55 -101 -111 -115 -126 -14
-15 -41 -46 -60 -70 -34 -41 -46 -56 -81 -98 -9 -10 -56 -68 -104 -128 -48
-60 -95 -118 -104 -129 -9 -11 -29 -38 -46 -60 -16 -22 -33 -41 -37 -43 -4 -2
-8 -10 -8 -17 0 -7 -3 -15 -8 -17 -4 -1 -33 -37 -64 -78 -32 -41 -61 -79 -65
-85 -5 -5 -21 -30 -38 -55 -16 -25 -35 -51 -42 -58 -7 -7 -20 -26 -30 -42 -9
-17 -21 -30 -26 -30 -4 0 -5 -5 -2 -10 3 -6 -1 -13 -9 -16 -9 -3 -16 -11 -16
-16 0 -6 -15 -31 -33 -57 -17 -25 -38 -58 -46 -73 -8 -16 -18 -28 -23 -28 -4
0 -8 -4 -8 -10 0 -9 -32 -60 -142 -230 -26 -41 -48 -80 -48 -87 0 -7 -3 -13
-7 -13 -5 0 -13 -10 -19 -23 -16 -33 -92 -173 -134 -247 -21 -36 -50 -90 -65
-120 -15 -30 -33 -58 -39 -62 -6 -4 -8 -8 -4 -8 4 0 -15 -45 -43 -100 -27 -55
-49 -105 -49 -110 0 -6 -5 -10 -12 -10 -6 0 -9 -3 -5 -6 3 -3 -9 -34 -26 -68
-17 -33 -32 -63 -33 -66 -1 -6 -15 -38 -49 -115 -15 -33 -27 -60 -26 -60 0 0
-2 -10 -5 -22 -4 -13 -10 -23 -13 -23 -4 0 -8 -6 -8 -12 0 -7 -8 -30 -17 -50
-10 -20 -19 -42 -20 -50 -2 -7 -10 -30 -19 -50 -36 -80 -202 -549 -211 -593
-1 -5 -5 -16 -9 -22 -5 -7 -6 -13 -3 -13 3 0 -6 -30 -18 -67 -13 -38 -23 -70
-23 -73 -1 -3 -6 -25 -13 -50 -7 -25 -12 -47 -12 -50 0 -3 -5 -16 -10 -30 -5
-14 -12 -36 -15 -50 -7 -35 -8 -39 -22 -90 -7 -25 -15 -56 -17 -70 -3 -14 -7
-32 -11 -40 -3 -8 -7 -22 -8 -30 -1 -8 -10 -46 -20 -85 -9 -38 -19 -83 -22
-100 -3 -16 -10 -33 -16 -37 -8 -5 -8 -8 -1 -8 7 0 4 -25 -8 -71 -9 -39 -20
-83 -22 -97 -2 -15 -5 -27 -6 -27 -1 0 -3 -16 -6 -35 -2 -19 -8 -55 -13 -80
-12 -54 -18 -88 -41 -240 -6 -41 -14 -86 -17 -100 -3 -14 -7 -41 -8 -60 -2
-19 -6 -53 -9 -75 -3 -22 -8 -56 -10 -75 -2 -19 -7 -60 -11 -90 -8 -59 -10
-82 -20 -235 -4 -55 -8 -125 -10 -155 -14 -197 -21 -704 -12 -773 3 -15 0 -30
-5 -33 -4 -3 -5 -11 -1 -17 4 -7 8 -41 9 -77 2 -71 11 -235 20 -345 5 -73 9
-115 19 -200 3 -27 7 -75 11 -105 5 -58 10 -97 20 -157 3 -21 7 -54 9 -73 2
-19 6 -46 8 -60 3 -14 8 -47 12 -75 4 -27 9 -59 11 -70 10 -47 16 -81 19 -100
9 -62 30 -170 46 -244 11 -46 17 -86 14 -89 -3 -3 0 -10 5 -17 5 -6 12 -29 15
-51 4 -21 11 -57 17 -79 5 -22 11 -47 13 -55 4 -23 25 -99 42 -155 24 -82 45
-126 91 -200 25 -38 44 -71 44 -72 -6 -14 138 -154 204 -198 32 -22 61 -43 64
-46 8 -10 112 -57 143 -64 15 -4 27 -11 27 -17 0 -5 4 -7 9 -3 6 3 29 1 53 -5
24 -6 52 -13 63 -15 11 -3 31 -8 45 -11 66 -16 241 -9 300 13 8 3 24 7 35 9
28 3 77 16 105 27 8 3 35 13 60 22 46 16 202 122 255 172 35 33 109 123 101
123 -3 0 5 11 17 24 30 33 100 175 93 191 -3 8 -2 15 2 17 7 3 37 115 49 183
11 62 7 263 -6 279 -6 7 -9 15 -6 17 2 3 -5 43 -16 89 -21 89 -26 115 -33 153
-2 12 -10 45 -16 72 -6 28 -14 68 -16 90 -3 22 -7 47 -11 55 -3 8 -7 31 -9 50
-4 35 -11 75 -14 75 -1 0 -3 17 -5 38 -2 21 -6 53 -9 70 -3 18 -8 55 -12 82
-3 28 -8 59 -10 70 -2 11 -6 47 -9 80 -3 33 -7 76 -10 95 -2 19 -7 72 -11 118
-3 46 -8 95 -10 110 -7 47 -17 391 -17 567 -1 248 15 545 38 725 4 31 8 68 21
190 1 19 6 51 10 70 3 19 8 51 10 70 10 83 13 105 14 105 1 0 3 11 6 25 6 42
26 154 31 175 2 11 6 34 8 50 3 17 7 41 10 55 3 14 8 36 11 50 3 14 7 34 9 45
3 11 7 30 9 43 3 12 7 26 11 31 3 5 7 22 9 38 6 40 11 59 37 143 13 41 24 77
24 80 1 3 4 16 9 30 4 14 23 77 42 140 20 63 39 124 44 135 7 16 51 147 55
165 1 3 7 19 14 35 7 17 24 59 38 95 28 73 50 125 64 155 6 12 11 27 13 35 1
8 9 31 18 50 8 19 26 60 39 90 12 30 33 74 46 97 13 23 23 48 23 55 0 8 5 19
11 25 6 6 30 53 54 105 23 51 82 165 130 253 49 88 96 174 104 190 18 34 111
184 124 200 4 6 22 33 39 60 18 28 37 53 43 57 5 4 6 8 2 8 -5 0 4 17 20 38
16 20 40 55 53 77 13 22 30 46 37 53 7 7 13 17 13 22 0 5 6 15 13 22 7 7 33
43 59 79 26 36 72 97 103 135 31 38 71 87 88 108 18 22 41 49 52 62 12 12 31
36 45 54 13 17 35 43 49 59 14 15 55 61 91 101 36 40 89 97 118 127 28 30 52
56 52 58 0 7 277 281 349 345 41 36 89 79 107 95 69 61 103 91 134 115 34 27
108 87 151 125 14 12 32 26 41 31 8 5 31 22 49 37 30 24 142 109 211 159 36
27 107 75 183 126 39 25 73 51 77 57 4 5 8 6 8 2 0 -4 10 1 22 12 11 11 25 18
30 15 4 -3 8 0 8 5 0 6 6 11 14 11 8 0 16 4 18 8 2 5 15 15 30 23 64 34 203
113 208 118 3 3 23 15 45 26 22 11 42 22 45 25 13 14 259 140 390 200 63 29
149 69 190 88 41 20 77 36 80 37 3 0 11 4 18 8 6 5 12 6 12 3 0 -4 17 3 37 14
21 11 41 20 44 20 4 0 24 8 45 17 22 9 45 16 52 14 6 -1 12 3 12 9 0 5 3 9 8
8 4 -1 23 4 42 11 19 8 37 15 40 16 3 1 19 7 35 14 17 7 73 26 125 42 52 17
102 34 110 38 9 5 31 12 50 16 19 4 41 12 48 17 6 6 12 8 12 5 0 -4 19 1 43 9
23 9 49 17 57 19 8 2 76 21 150 41 74 20 142 38 150 38 9 1 20 5 25 8 9 5 28
10 98 23 33 6 67 13 105 21 51 10 72 14 95 18 13 2 48 9 78 15 30 6 74 13 99
16 25 3 56 7 70 10 14 2 43 7 65 10 22 2 60 7 85 10 25 4 65 8 90 10 25 3 65
7 90 10 240 27 490 39 785 37 291 -2 376 -5 392 -15 6 -4 14 -3 18 3 4 6 10 8
15 5 5 -3 39 -7 77 -10 116 -9 173 -14 227 -20 28 -4 69 -9 91 -10 65 -6 148
-15 185 -21 19 -3 51 -7 70 -10 43 -6 75 -12 75 -14 0 -1 18 -4 40 -5 22 -2
40 -4 40 -5 0 -1 9 -3 20 -5 62 -9 102 -17 114 -21 8 -2 30 -7 50 -10 20 -3
54 -10 76 -16 22 -6 51 -12 65 -13 34 -5 82 -15 100 -22 18 -8 16 -7 65 -18
22 -4 45 -10 50 -11 23 -7 131 -36 140 -39 6 -1 17 -5 25 -8 26 -10 85 -27 90
-26 3 0 23 -6 45 -14 22 -9 72 -25 110 -37 39 -11 79 -24 90 -29 27 -11 109
-40 170 -59 28 -9 53 -20 56 -25 3 -5 8 -8 10 -7 2 1 17 -3 32 -9 16 -6 31
-11 34 -11 5 0 148 -60 240 -101 24 -11 50 -19 58 -19 8 0 15 -4 15 -8 0 -5
18 -15 40 -22 22 -7 40 -17 40 -22 0 -4 3 -7 8 -6 4 1 39 -13 77 -32 39 -18
73 -33 78 -32 4 1 7 -3 7 -8 0 -5 3 -9 8 -8 7 2 63 -23 72 -32 3 -3 10 -6 15
-7 6 -1 48 -22 94 -48 47 -26 94 -51 105 -56 12 -5 35 -18 51 -29 17 -11 44
-26 60 -35 17 -8 48 -26 70 -39 22 -14 54 -31 70 -40 41 -22 257 -160 275
-177 9 -8 28 -20 43 -28 15 -8 27 -18 27 -23 0 -4 6 -8 13 -8 8 0 22 -9 32
-20 10 -11 22 -20 28 -20 5 0 25 -13 44 -30 18 -16 38 -30 44 -30 5 0 24 -13
42 -30 18 -16 35 -30 38 -30 3 0 24 -14 45 -31 22 -17 54 -43 73 -57 19 -15
46 -37 60 -48 l25 -22 -94 -91 c-52 -50 -97 -91 -102 -91 -4 0 -8 -8 -8 -17 0
-9 -3 -14 -6 -11 -3 4 -28 -18 -57 -48 -28 -30 -57 -54 -65 -54 -7 0 -10 -5
-7 -11 4 -6 -2 -13 -14 -16 -12 -3 -21 -9 -21 -14 0 -12 -80 -89 -91 -89 -5 0
-9 -6 -9 -13 0 -14 -73 -97 -86 -97 -9 0 -44 -41 -44 -52 0 -5 -4 -7 -8 -4 -9
6 -42 -29 -42 -44 0 -6 -4 -10 -8 -10 -5 0 -26 -16 -48 -35 -21 -19 -43 -35
-48 -35 -5 0 -7 -3 -4 -6 8 -7 -36 -54 -51 -54 -7 0 -9 -4 -6 -10 3 -5 1 -10
-5 -10 -13 0 -100 -88 -100 -101 0 -5 -7 -9 -15 -9 -8 0 -15 -4 -15 -8 0 -5
-11 -14 -24 -21 -17 -9 -22 -19 -18 -34 4 -16 2 -19 -11 -14 -12 5 -17 1 -17
-13 0 -20 23 -37 62 -44 13 -3 23 -5 23 -6 0 -2 35 -10 62 -14 12 -1 29 -8 37
-15 9 -7 22 -11 31 -8 8 4 20 1 27 -6 7 -7 20 -12 28 -12 8 1 21 -3 28 -8 6
-5 12 -7 12 -4 0 4 18 0 39 -8 22 -7 43 -10 47 -7 4 4 4 1 0 -5 -5 -8 -1 -13
11 -14 44 -3 93 -17 93 -28 0 -5 32 -10 98 -15 12 0 22 -4 22 -8 0 -5 9 -8 20
-8 11 0 20 -4 20 -8 0 -4 12 -9 26 -10 15 -1 32 -6 38 -10 6 -4 25 -9 41 -11
17 -2 33 -7 36 -13 3 -5 9 -9 13 -8 13 3 71 -12 83 -22 7 -6 19 -8 27 -5 7 3
19 0 25 -6 6 -6 19 -12 28 -13 58 -9 130 -27 140 -36 7 -5 16 -7 22 -4 5 3 12
0 14 -6 4 -10 6 -10 6 0 1 11 4 10 16 -1 8 -9 23 -14 32 -13 10 2 24 -3 31
-11 8 -7 18 -11 23 -7 6 3 15 1 22 -4 7 -5 21 -12 32 -14 11 -3 29 -9 39 -14
14 -5 17 -4 11 5 -5 9 0 8 16 -2 13 -8 36 -17 52 -21 15 -4 27 -11 27 -17 0
-6 6 -6 19 1 14 7 21 6 24 -3 2 -6 15 -13 28 -14 53 -4 84 -12 87 -22 2 -7 10
-8 22 -1 15 8 21 6 29 -7 6 -10 11 -15 11 -11 0 10 63 -13 72 -26 5 -7 8 -6 8
3 0 10 3 11 14 2 7 -6 25 -12 40 -13 14 -1 26 -6 26 -10 0 -4 11 -8 25 -8 14
0 25 -5 25 -11 0 -6 9 -9 20 -6 11 3 26 0 33 -6 11 -11 33 -16 95 -20 12 0 22
-5 22 -9 0 -4 11 -8 25 -8 14 0 25 -4 25 -8 0 -4 12 -9 26 -10 15 -1 33 -7 39
-12 7 -6 17 -10 21 -9 14 3 68 -13 82 -24 7 -6 23 -12 35 -13 12 -2 33 -4 47
-6 14 -2 31 -8 38 -15 7 -7 20 -9 28 -6 9 3 19 1 23 -4 3 -6 25 -13 48 -16 24
-2 48 -9 55 -14 7 -5 25 -9 40 -8 15 0 24 -3 22 -7 -3 -4 9 -8 25 -8 17 0 31
-4 31 -10 0 -5 16 -10 35 -10 19 0 35 -5 35 -11 0 -6 6 -9 14 -6 7 3 25 -1 39
-8 14 -7 28 -11 31 -7 3 3 6 0 6 -6 0 -6 9 -9 20 -7 11 2 20 0 20 -4 0 -4 6
-8 13 -9 45 -5 133 -27 138 -35 3 -5 10 -8 15 -8 20 2 74 -12 74 -19 0 -4 16
-7 35 -5 19 1 32 -2 29 -7 -5 -8 -1 -10 38 -12 12 0 23 -6 25 -12 2 -6 17 -8
33 -6 18 3 30 0 30 -7 0 -6 11 -11 25 -11 14 0 25 -4 25 -8 0 -4 12 -9 28 -10
15 -1 28 -6 30 -11 1 -4 14 -6 27 -3 14 2 25 0 25 -5 0 -5 14 -9 30 -8 17 1
33 -2 36 -7 3 -4 14 -8 25 -8 10 0 19 -4 19 -8 0 -4 12 -9 27 -10 15 -1 29 -5
32 -10 3 -4 15 -7 26 -6 11 0 25 -3 30 -6 6 -3 17 -6 25 -5 8 0 21 -5 28 -12
7 -6 21 -10 32 -8 11 2 18 0 15 -6 -6 -8 15 -13 43 -10 6 1 12 -3 12 -9 0 -5
16 -10 35 -10 19 0 35 -4 35 -9 0 -5 10 -9 23 -10 12 -1 36 -3 52 -4 17 -1 32
-5 35 -9 3 -4 18 -9 34 -12 16 -3 34 -10 39 -15 5 -5 16 -7 23 -4 8 3 20 1 27
-5 10 -8 62 -23 84 -24 5 0 17 -5 28 -11 11 -7 25 -13 30 -13 6 -1 12 -3 15
-4 3 -1 18 -4 35 -6 16 -3 32 -8 35 -12 3 -4 14 -7 25 -7 11 1 22 -2 25 -6 3
-4 21 -8 40 -10 19 -2 41 -7 48 -12 8 -6 12 -5 12 4 0 11 2 11 10 -1 5 -8 10
-10 11 -5 4 36 -1 76 -14 112 -8 24 -10 40 -5 37 5 -4 2 8 -7 25 -9 17 -13 36
-9 42 4 6 1 15 -5 19 -7 4 -13 21 -13 38 -1 18 -5 32 -9 32 -4 0 -6 11 -3 25
2 15 0 25 -7 25 -6 0 -9 7 -5 15 3 8 0 15 -6 15 -7 0 -7 4 1 14 9 11 9 15 0
18 -6 2 -11 16 -11 31 0 15 -4 27 -9 27 -4 0 -8 8 -7 18 0 31 -10 80 -21 100
-8 15 -8 21 0 24 8 3 7 8 -2 18 -8 8 -14 27 -14 43 1 16 -4 27 -13 27 -7 0
-10 4 -7 10 11 18 14 51 4 45 -8 -5 -14 15 -10 38 0 4 -3 7 -9 7 -5 0 -10 16
-10 35 0 19 -4 35 -9 35 -5 0 -8 11 -6 25 1 14 -1 25 -4 25 -4 0 -8 10 -8 23
-3 48 -12 93 -23 122 -7 17 -13 43 -15 58 -1 16 -7 33 -13 39 -6 6 -8 17 -5
24 3 8 1 20 -5 27 -5 6 -8 22 -7 35 1 12 -3 22 -8 22 -5 0 -7 9 -4 20 3 10 0
21 -5 22 -10 4 -14 20 -22 91 -2 15 -9 33 -15 40 -6 8 -8 17 -4 21 11 10 12
37 2 30 -9 -5 -13 15 -10 49 1 9 -3 17 -9 17 -7 0 -10 7 -7 15 4 8 2 17 -4 21
-6 3 -8 12 -5 19 2 7 2 16 -2 20 -4 4 -8 11 -8 16 -1 5 -3 11 -4 14 -1 3 -3
13 -5 23 -1 9 -4 24 -8 32 -3 8 -8 29 -11 45 -11 54 -12 56 -27 66 -8 5 -9 9
-2 9 12 0 11 13 -2 43 -4 9 -5 23 -2 31 3 7 0 22 -7 32 -6 11 -11 29 -10 42 1
12 -2 22 -6 22 -4 0 -7 6 -7 13 2 23 -15 87 -23 87 -5 0 -7 11 -5 25 1 14 -2
28 -7 31 -5 3 -7 12 -4 19 2 7 -2 24 -9 38 -7 15 -12 34 -11 44 2 10 -1 20 -5
23 -5 3 -10 27 -11 53 -2 26 -6 47 -9 47 -6 0 -14 36 -23 97 -1 12 -8 28 -14
36 -7 8 -9 17 -5 20 3 4 1 12 -5 20 -6 7 -10 22 -8 32 2 11 -1 23 -7 27 -6 3
-11 19 -13 35 -2 26 -6 51 -18 98 -2 11 -5 22 -7 25 -4 10 -7 26 -8 53 0 16
-5 25 -11 22 -6 -4 -7 6 -4 25 4 19 2 30 -5 30 -7 0 -10 10 -7 25 3 14 0 25
-5 25 -5 0 -9 11 -9 25 0 14 -4 25 -9 25 -6 0 -8 8 -6 19 2 10 -3 30 -10 44
-9 17 -10 27 -3 29 7 3 5 10 -4 19 -8 8 -14 27 -12 42 1 15 -2 27 -7 27 -5 0
-9 13 -9 28 0 15 -5 33 -12 40 -9 9 -9 12 1 12 9 0 10 4 3 13 -9 11 -19 53
-25 106 -2 14 -8 26 -15 29 -7 2 -9 8 -6 13 3 6 -1 21 -10 34 -12 17 -12 25
-3 28 9 3 9 8 -2 20 -7 9 -11 23 -8 31 3 8 -1 20 -8 26 -8 7 -13 21 -11 32 1
12 -3 37 -10 57 -7 20 -13 51 -14 69 0 17 -4 32 -9 32 -6 0 -8 9 -6 20 2 11
-1 22 -6 26 -5 3 -7 14 -4 24 3 10 1 21 -5 25 -5 3 -10 20 -10 36 0 17 -4 28
-9 25 -4 -3 -7 5 -7 17 1 12 -1 27 -5 32 -4 6 -9 23 -11 37 -2 15 -7 30 -10
34 -4 3 -4 12 -1 20 3 8 1 14 -4 14 -5 0 -14 37 -22 82 -7 46 -17 86 -23 89
-6 4 -9 21 -6 37 2 17 1 29 -4 26 -8 -5 -12 17 -9 44 1 6 -3 12 -8 12 -5 0 -8
9 -6 20 2 11 0 20 -4 20 -7 0 -25 75 -19 82 1 2 -5 14 -12 28 -7 14 -15 40
-16 59 -3 51 -19 59 -51 26 -15 -15 -38 -34 -50 -42 -13 -9 -23 -21 -23 -27 0
-7 -11 -19 -25 -26 -13 -7 -22 -17 -19 -22 3 -4 1 -8 -5 -8 -5 0 -22 -11 -37
-25 -15 -14 -31 -25 -35 -25 -5 0 -8 -4 -7 -8 3 -8 -66 -78 -101 -102 -11 -8
-24 -22 -27 -32 -3 -9 -13 -20 -23 -23 -10 -3 -24 -16 -31 -30 -7 -13 -16 -23
-20 -22 -4 1 -36 -27 -71 -61 -35 -35 -76 -76 -91 -90 -16 -15 -28 -30 -28
-34 0 -5 -7 -8 -15 -8 -8 0 -15 -7 -15 -16 0 -8 -4 -12 -10 -9 -5 3 -10 2 -10
-4 0 -5 -9 -13 -21 -16 -11 -4 -18 -9 -15 -12 2 -3 -26 -35 -64 -72 -195 -187
-280 -266 -288 -266 -12 0 -57 33 -94 68 -16 15 -32 27 -36 27 -4 0 -28 20
-54 45 -27 24 -48 41 -48 37 0 -4 -4 -2 -8 4 -18 25 -295 235 -442 334 -52 35
-96 67 -98 72 -2 4 -8 8 -14 8 -11 0 -100 59 -109 73 -3 5 -10 9 -15 10 -16 1
-74 39 -74 47 0 4 -8 10 -17 13 -19 6 -74 38 -83 48 -4 4 -43 29 -105 66 -11
7 -27 16 -35 20 -8 4 -58 31 -110 61 -153 88 -175 100 -184 100 -5 0 -12 5
-15 10 -5 8 -215 115 -421 215 -25 12 -46 25 -48 30 -2 4 -9 7 -16 7 -7 0 -26
6 -42 14 -16 8 -63 28 -104 46 -41 18 -88 38 -105 46 -50 22 -178 75 -210 85
-16 6 -39 14 -50 19 -36 15 -90 35 -95 35 -3 1 -21 8 -40 17 -47 20 -299 106
-310 105 -3 0 -15 5 -28 12 -13 7 -31 14 -40 16 -9 2 -71 20 -137 40 -132 41
-170 52 -230 66 -75 18 -110 27 -190 49 -44 11 -91 23 -105 25 -14 2 -63 14
-110 25 -81 21 -98 25 -155 34 -13 2 -39 9 -57 15 -18 5 -46 12 -63 15 -32 4
-242 42 -287 51 -16 3 -40 7 -55 9 -16 2 -44 6 -63 9 -19 4 -53 9 -75 11 -22
3 -51 8 -65 10 -14 3 -47 7 -75 10 -27 3 -61 8 -75 10 -14 3 -56 7 -95 11 -38
3 -83 8 -100 11 -16 2 -61 6 -100 9 -38 2 -70 5 -70 5 0 1 -10 3 -22 4 -13 2
-23 -1 -23 -6 0 -5 -6 -6 -12 -1 -15 9 -31 11 -239 18 -86 3 -171 7 -188 9
-17 2 -34 -1 -37 -5 -3 -5 -11 -6 -17 -2 -19 12 -117 11 -110 0 4 -6 1 -7 -8
-1 -19 12 -150 13 -142 1 4 -6 1 -7 -8 -1 -13 8 -187 13 -194 6z"/>
<path d="M6854 15289 c-96 -12 -138 -54 -150 -150 -3 -30 -6 -1088 -6 -2351 0
-1264 -3 -2296 -7 -2294 -3 2 -6 -12 -7 -32 0 -20 -6 -38 -12 -40 -7 -2 -12
-9 -12 -15 0 -7 -12 -20 -25 -30 -63 -46 -64 -46 -817 -47 -615 -1 -850 -4
-906 -12 -7 -1 -24 -11 -37 -24 -18 -17 -23 -30 -20 -54 3 -29 61 -116 110
-166 11 -11 52 -56 90 -99 39 -43 80 -89 93 -101 12 -12 22 -24 22 -27 0 -3
19 -25 43 -50 23 -25 67 -73 97 -107 30 -34 64 -72 75 -84 11 -13 52 -58 90
-101 39 -44 93 -104 122 -134 29 -31 53 -62 53 -69 0 -7 5 -10 10 -7 6 3 10 3
10 -2 0 -4 12 -21 28 -38 15 -16 61 -68 102 -115 41 -47 83 -92 93 -101 9 -9
17 -19 17 -21 0 -3 26 -32 58 -66 31 -33 76 -82 98 -109 23 -26 52 -60 65 -74
49 -53 126 -138 184 -203 32 -37 68 -78 80 -91 32 -36 147 -165 175 -195 14
-15 54 -60 90 -101 36 -40 75 -84 88 -97 12 -12 22 -25 22 -27 0 -2 15 -19 33
-37 17 -19 59 -65 92 -102 63 -71 138 -155 216 -240 25 -28 59 -66 75 -85 16
-19 40 -46 53 -60 13 -14 49 -55 80 -90 31 -36 67 -76 81 -91 27 -29 138 -152
189 -210 17 -19 31 -38 31 -42 0 -5 7 -8 15 -8 8 0 15 -4 15 -9 0 -15 67 -91
74 -84 3 4 6 1 6 -5 0 -6 10 -22 23 -35 12 -14 45 -52 74 -84 29 -33 65 -73
80 -90 15 -16 57 -63 93 -104 166 -187 220 -230 269 -209 15 6 28 16 29 23 0
7 5 29 10 49 6 23 9 1678 8 4341 -1 3632 -3 4307 -15 4320 -7 10 -10 17 -7 17
4 0 1 7 -8 15 -8 8 -19 15 -25 15 -6 0 -11 4 -11 10 0 28 -94 33 -715 34 -346
1 -653 -2 -681 -5z"/>
<path d="M11160 14775 c-27 -29 -30 -47 -35 -188 -3 -65 -7 -122 -10 -127 -4
-6 -3 -10 2 -10 10 0 9 -292 -1 -308 -4 -7 -3 -12 1 -12 9 0 9 -147 0 -157 -4
-3 -3 -13 1 -22 4 -9 7 -63 5 -121 -4 -120 -4 -131 0 -260 1 -52 -2 -101 -7
-107 -5 -7 -5 -13 0 -13 11 0 11 -251 0 -268 -4 -7 -4 -12 1 -12 10 0 9 -292
-1 -308 -4 -7 -3 -12 1 -12 9 0 9 -147 0 -157 -4 -3 -3 -13 1 -22 4 -9 7 -63
5 -121 -4 -120 -4 -131 0 -260 1 -52 -2 -101 -7 -107 -5 -7 -5 -13 0 -13 11 0
11 -251 0 -268 -4 -7 -4 -12 1 -12 10 0 9 -292 -1 -308 -4 -7 -3 -12 1 -12 9
0 9 -147 0 -157 -4 -3 -3 -13 1 -22 4 -9 7 -63 5 -121 -4 -120 -4 -131 0 -260
1 -52 -2 -101 -7 -107 -5 -7 -5 -13 0 -13 11 0 11 -251 0 -268 -4 -7 -4 -12 1
-12 10 0 9 -292 -1 -308 -4 -7 -3 -12 1 -12 9 0 9 -147 0 -157 -4 -3 -3 -13 1
-22 4 -9 7 -63 5 -121 -4 -120 -4 -131 0 -260 1 -52 -2 -101 -7 -107 -5 -7 -5
-13 0 -13 11 0 11 -251 0 -268 -4 -7 -3 -12 1 -12 9 0 9 -147 0 -157 -4 -3 -3
-13 1 -22 4 -9 7 -63 5 -121 -4 -120 -4 -131 0 -260 1 -52 -2 -101 -7 -107 -5
-8 -5 -13 0 -13 10 0 11 -106 1 -116 -3 -4 -3 -14 1 -23 4 -9 7 -63 5 -121 -4
-120 -4 -131 0 -260 1 -52 -2 -101 -7 -107 -5 -8 -5 -13 0 -13 11 0 10 -192
-1 -210 -6 -9 -4 -11 6 -5 12 8 12 6 0 -8 -7 -9 -9 -17 -4 -17 5 0 8 -12 7
-27 -14 -164 -67 -224 -204 -233 -30 -2 -164 -3 -297 -3 -156 0 -240 -4 -236
-10 4 -6 1 -7 -8 -1 -20 12 -320 14 -312 1 4 -6 1 -7 -8 -1 -21 13 -432 13
-441 0 -6 -8 -8 -8 -8 0 0 13 -57 16 -65 4 -3 -6 -15 -6 -29 0 -13 5 -26 6
-29 4 -3 -3 -17 -7 -31 -8 -34 -4 -72 -30 -78 -54 -3 -10 3 -36 13 -58 19 -40
25 -47 119 -154 61 -68 71 -80 180 -200 41 -46 82 -91 90 -102 8 -11 34 -39
57 -64 23 -24 41 -44 39 -44 -2 0 13 -17 33 -38 20 -20 68 -73 106 -116 39
-44 75 -84 80 -90 6 -6 66 -74 135 -151 68 -77 141 -158 162 -180 21 -22 41
-48 44 -57 3 -10 12 -18 20 -18 8 0 14 -4 14 -8 0 -4 21 -31 48 -59 26 -29 72
-80 102 -114 30 -34 63 -69 73 -78 9 -8 17 -19 17 -22 0 -4 19 -27 43 -52 23
-24 71 -77 107 -117 36 -40 71 -79 78 -86 6 -7 12 -18 12 -24 0 -6 5 -8 10 -5
6 3 10 3 10 -2 0 -4 17 -27 38 -49 20 -23 69 -77 107 -120 39 -43 77 -85 85
-94 8 -9 30 -34 49 -55 19 -22 68 -78 110 -124 42 -47 100 -112 130 -145 29
-34 61 -68 70 -76 9 -9 39 -42 66 -75 28 -33 64 -74 80 -91 48 -50 105 -114
105 -119 0 -2 24 -29 54 -59 30 -31 51 -56 48 -56 -2 0 6 -10 19 -23 25 -23
70 -73 194 -212 39 -43 77 -86 85 -95 20 -21 131 -148 156 -178 10 -13 39 -44
64 -70 25 -26 70 -76 100 -111 84 -98 182 -192 210 -203 56 -21 88 11 97 97 8
79 9 560 1 577 -4 9 -4 19 0 22 10 6 9 207 -1 223 -4 6 -4 14 1 17 10 6 9 207
-1 223 -4 6 -4 14 1 17 10 6 9 207 -1 223 -4 6 -4 14 1 17 10 6 9 207 -1 223
-4 6 -4 14 1 17 10 6 9 207 -1 223 -4 6 -4 14 1 17 10 6 9 207 -1 223 -4 6 -4
14 1 17 10 6 9 207 -1 223 -4 6 -4 14 1 17 10 6 9 207 -1 223 -4 6 -4 14 1 17
10 6 9 207 -1 223 -4 6 -4 14 1 17 11 6 9 96 -1 114 -5 6 -4 12 0 12 10 0 10
240 0 257 -4 6 -4 14 1 17 10 6 9 207 -1 223 -4 6 -4 14 1 17 10 6 9 207 -1
223 -4 6 -4 14 1 17 10 6 9 207 -1 223 -4 6 -4 14 1 17 10 6 9 207 -1 223 -4
6 -4 14 1 17 10 6 9 207 -1 223 -4 6 -4 14 1 17 10 6 9 207 -1 223 -4 6 -4 14
1 17 10 6 9 207 -1 223 -4 6 -4 14 1 17 10 6 9 207 -1 223 -4 6 -4 14 1 17 10
6 9 207 -1 223 -4 6 -4 14 1 17 10 6 9 207 -1 223 -4 6 -4 14 1 17 10 6 9 207
-1 223 -4 6 -4 14 1 17 10 6 9 207 -1 223 -4 6 -4 14 1 17 10 6 9 207 -1 223
-4 6 -4 14 1 17 10 6 9 207 -1 223 -4 6 -4 14 1 17 7 4 9 195 2 221 -1 6 -1
12 0 15 1 3 3 65 5 138 2 104 6 142 21 175 20 45 49 79 58 69 3 -3 6 -1 6 5 0
32 91 36 815 38 396 1 736 6 755 10 19 5 38 10 43 11 4 1 11 2 16 3 15 2 33
58 26 80 -11 37 -98 142 -255 312 -14 15 -45 50 -70 79 -25 29 -56 64 -70 79
-22 24 -91 102 -182 205 -15 17 -28 34 -28 39 0 4 -7 7 -15 7 -8 0 -15 5 -15
10 0 6 -10 21 -22 34 -13 12 -48 51 -78 86 -30 34 -64 72 -76 84 -11 11 -54
59 -95 106 -41 46 -82 93 -92 105 -10 11 -40 44 -65 73 -26 29 -66 73 -89 98
-24 26 -43 50 -43 55 0 5 -7 9 -15 9 -8 0 -15 4 -15 10 0 9 -63 82 -122 142
-16 15 -28 32 -28 38 0 5 -8 10 -17 10 -9 0 -13 3 -10 7 4 3 -7 19 -23 35 -17
15 -30 31 -30 34 0 4 -17 24 -37 45 -21 21 -51 53 -67 71 -16 18 -45 51 -65
73 -20 22 -75 83 -121 135 -47 52 -95 105 -107 118 -13 13 -23 27 -23 32 0 5
-9 12 -20 15 -11 3 -20 12 -20 18 -1 12 -40 58 -146 168 -30 31 -54 61 -54 67
0 6 -9 14 -21 17 -11 4 -18 9 -15 12 3 3 -11 23 -32 43 -20 21 -59 64 -87 96
-27 32 -70 80 -95 107 -25 27 -53 59 -63 71 -18 20 -85 96 -177 199 -25 28
-62 68 -82 89 -20 21 -35 38 -33 38 2 0 -11 15 -28 34 -64 67 -123 133 -166
184 -24 29 -62 72 -85 97 -23 24 -63 69 -91 100 -27 32 -80 89 -117 128 -38
39 -68 74 -68 79 0 4 -10 13 -22 19 -12 6 -30 20 -41 29 -30 28 -63 30 -87 5z"/>
<path d="M17618 12485 c-2 -2 -19 -7 -38 -10 -205 -36 -355 -90 -392 -140 -5
-7 -8 -7 -8 0 0 6 -6 3 -13 -5 -7 -8 -32 -28 -56 -45 -59 -39 -80 -60 -126
-120 -20 -27 -40 -52 -44 -55 -21 -16 -82 -126 -74 -134 4 -3 1 -6 -5 -6 -9 0
-19 -19 -28 -55 -2 -5 -5 -19 -8 -30 -3 -11 -10 -40 -17 -65 -6 -25 -13 -52
-16 -60 -3 -8 -7 -22 -8 -30 -1 -8 -6 -31 -9 -50 -9 -42 -9 -185 -2 -220 3
-14 11 -52 17 -85 14 -75 17 -89 19 -92 3 -4 5 -11 15 -68 4 -27 10 -54 11
-60 2 -5 6 -26 10 -45 9 -51 12 -65 14 -65 1 0 3 -18 6 -40 4 -41 11 -80 14
-80 1 0 3 -11 4 -25 2 -14 8 -56 14 -95 16 -98 24 -163 28 -210 1 -22 4 -40 5
-40 1 0 3 -11 4 -25 1 -14 6 -61 10 -105 4 -44 9 -102 11 -130 1 -27 3 -50 4
-50 6 0 23 -470 22 -595 0 -114 -18 -545 -22 -545 -2 0 -8 -67 -14 -155 -2
-30 -6 -62 -9 -70 -3 -8 -8 -44 -12 -80 -8 -93 -15 -152 -20 -176 -2 -11 -7
-45 -11 -75 -7 -57 -11 -84 -14 -84 -3 0 -16 -81 -24 -147 -3 -20 -10 -56 -16
-79 -7 -24 -13 -57 -15 -74 -2 -16 -4 -30 -5 -30 -1 0 -3 -7 -5 -15 -2 -8 -6
-27 -9 -42 -22 -102 -33 -148 -36 -158 -1 -3 -3 -9 -5 -15 -1 -5 -3 -12 -4
-15 -2 -3 -4 -12 -6 -21 -1 -9 -11 -43 -21 -75 -10 -33 -18 -62 -20 -66 -1 -5
-2 -9 -4 -10 -1 -2 -3 -10 -5 -18 -3 -17 -73 -238 -82 -260 -4 -8 -7 -18 -8
-22 -2 -5 -3 -9 -5 -10 -1 -2 -3 -10 -5 -18 -2 -8 -14 -45 -28 -82 -14 -37
-22 -69 -19 -72 3 -3 0 -6 -6 -6 -7 0 -12 -12 -12 -26 0 -17 -4 -23 -12 -18
-7 4 -10 4 -6 -1 4 -4 2 -15 -5 -23 -9 -13 -9 -14 0 -8 9 5 11 2 7 -8 -3 -9
-10 -16 -15 -16 -5 0 -8 -3 -8 -7 1 -5 0 -11 -1 -15 -1 -5 -3 -11 -4 -15 -1
-5 -12 -28 -24 -52 -12 -24 -19 -48 -16 -52 3 -5 -2 -12 -10 -15 -9 -3 -14 -9
-11 -13 2 -4 -3 -20 -11 -36 -8 -16 -16 -36 -17 -44 -2 -9 -14 -38 -27 -66
-13 -27 -24 -52 -25 -55 0 -3 -19 -42 -42 -87 -23 -46 -40 -83 -38 -83 3 0 -9
-23 -25 -50 -17 -28 -30 -57 -30 -63 0 -7 -4 -17 -9 -22 -4 -6 -26 -44 -48
-85 -52 -98 -106 -194 -112 -200 -4 -3 -7 -12 -9 -20 -2 -8 -10 -22 -18 -31
-8 -9 -11 -19 -7 -22 3 -4 1 -7 -5 -7 -7 0 -12 -7 -12 -15 0 -8 -4 -15 -10
-15 -5 0 -10 -6 -10 -12 0 -7 -16 -35 -34 -63 -19 -27 -32 -53 -29 -57 2 -5
-1 -8 -7 -8 -6 0 -16 -13 -23 -28 -7 -15 -18 -34 -25 -42 -24 -28 -62 -85 -68
-102 -4 -10 -10 -18 -14 -18 -5 0 -11 -8 -15 -19 -3 -10 -17 -31 -30 -47 -14
-16 -25 -34 -25 -41 0 -6 -3 -13 -7 -15 -5 -1 -32 -39 -62 -83 -45 -66 -185
-246 -226 -291 -5 -7 -27 -32 -47 -55 -20 -24 -47 -55 -58 -69 -12 -14 -41
-47 -64 -74 -22 -26 -60 -69 -83 -94 -24 -25 -43 -49 -43 -54 0 -5 -4 -6 -10
-3 -5 3 -10 1 -10 -4 0 -6 -36 -47 -80 -92 -44 -45 -80 -83 -80 -84 0 -1 -45
-47 -100 -102 -55 -54 -100 -98 -100 -97 0 1 -22 -19 -49 -44 -26 -26 -75 -69
-107 -97 -32 -27 -68 -59 -79 -70 -12 -11 -39 -33 -60 -50 -22 -16 -46 -36
-55 -45 -8 -8 -31 -26 -50 -40 -19 -14 -42 -32 -51 -40 -35 -34 -70 -60 -78
-60 -5 0 -11 -4 -13 -9 -4 -11 -159 -127 -172 -128 -5 -1 -12 -6 -15 -11 -10
-15 -100 -82 -111 -82 -6 0 -10 -4 -10 -8 0 -5 -18 -18 -40 -31 -22 -12 -40
-27 -40 -32 0 -6 -4 -7 -10 -4 -5 3 -10 1 -10 -4 0 -6 -7 -11 -15 -11 -8 0
-15 -4 -15 -10 0 -5 -5 -10 -11 -10 -6 0 -25 -11 -43 -25 -18 -14 -37 -25 -42
-25 -5 0 -21 -11 -36 -24 -14 -14 -29 -22 -32 -19 -3 4 -6 0 -6 -7 0 -7 -3
-10 -7 -7 -3 4 -15 0 -25 -10 -10 -9 -18 -12 -18 -7 0 5 -4 4 -8 -2 -7 -10
-76 -51 -167 -98 -22 -12 -42 -24 -45 -28 -3 -4 -17 -12 -30 -17 -14 -6 -52
-27 -85 -45 -104 -60 -379 -193 -409 -199 -6 -1 -13 -5 -16 -8 -7 -7 -89 -44
-117 -53 -13 -4 -23 -12 -23 -17 0 -6 -4 -8 -9 -5 -5 4 -22 -1 -38 -9 -31 -17
-80 -37 -103 -41 -8 -2 -16 -8 -18 -14 -2 -5 -7 -8 -12 -5 -4 2 -41 -8 -81
-24 -178 -70 -236 -91 -271 -97 -21 -3 -38 -10 -38 -15 0 -5 -9 -9 -20 -9 -10
0 -42 -9 -70 -20 -27 -11 -50 -18 -50 -16 0 3 -25 -4 -55 -15 -30 -10 -61 -19
-70 -19 -8 0 -15 -5 -15 -11 0 -5 -4 -7 -10 -4 -5 3 -10 0 -10 -7 0 -10 -2
-10 -8 -1 -5 8 -13 9 -22 3 -8 -6 -25 -10 -37 -10 -13 0 -23 -4 -23 -8 0 -4
-8 -8 -17 -9 -44 -3 -63 -8 -63 -16 0 -4 -4 -6 -9 -3 -5 4 -21 2 -36 -4 -14
-5 -38 -12 -53 -15 -15 -3 -36 -7 -47 -9 -198 -45 -267 -59 -302 -59 -7 0 -13
-3 -13 -6 0 -3 -10 -6 -22 -7 -23 0 -82 -9 -125 -18 -14 -3 -23 0 -23 7 0 9
-2 9 -8 0 -4 -7 -28 -14 -52 -17 -25 -3 -63 -8 -85 -11 -42 -6 -110 -13 -185
-20 -25 -2 -72 -6 -105 -9 -86 -8 -199 -16 -282 -20 -40 -3 -77 -8 -84 -12 -8
-4 -9 -3 -5 4 4 7 2 10 -6 7 -28 -11 -118 -11 -118 -1 0 7 -3 8 -8 1 -8 -12
-111 -14 -129 -2 -6 4 -14 3 -18 -2 -6 -11 -115 -9 -133 3 -7 4 -12 3 -12 -1
0 -10 -91 -10 -107 0 -7 4 -14 3 -18 -3 -4 -6 -12 -7 -24 0 -12 6 -22 5 -29
-2 -7 -7 -12 -8 -12 -2 0 5 -26 10 -57 11 -94 1 -230 12 -363 29 -25 3 -65 7
-90 9 -25 2 -65 6 -90 10 -25 3 -67 8 -95 11 -27 3 -61 7 -75 10 -14 3 -38 7
-55 9 -16 2 -30 4 -30 5 0 4 -134 23 -162 24 -13 0 -23 4 -23 9 0 4 -8 7 -17
6 -10 -1 -38 3 -62 10 -23 7 -49 10 -57 7 -8 -3 -14 -1 -14 4 0 6 -3 9 -7 8
-6 -2 -64 9 -93 17 -3 1 -25 5 -50 10 -51 10 -50 10 -70 18 -8 3 -28 8 -45 12
-35 7 -107 27 -220 62 -44 13 -91 27 -105 29 -13 3 -27 8 -30 12 -5 7 -13 9
-50 17 -8 2 -17 4 -20 5 -3 1 -8 2 -12 1 -5 0 -8 2 -8 7 0 4 -10 8 -23 9 -12
0 -35 7 -52 14 -28 11 -38 15 -67 22 -7 2 -31 11 -53 21 -22 10 -48 18 -58 19
-9 1 -17 5 -17 9 0 4 -6 8 -14 8 -19 0 -290 112 -297 123 -3 5 -9 8 -13 8 -18
-2 -193 73 -206 88 -3 3 -12 7 -20 9 -22 5 -164 76 -171 85 -3 5 -9 8 -13 8
-8 -1 -139 60 -146 68 -3 3 -18 13 -35 21 -16 8 -42 23 -57 33 -16 10 -28 15
-28 11 0 -4 -8 0 -17 8 -10 8 -45 30 -78 48 -33 19 -61 37 -63 42 -2 4 -12 8
-23 8 -10 0 -19 3 -19 8 0 4 -9 12 -20 17 -59 30 -170 100 -170 107 0 5 -4 6
-10 3 -6 -3 -10 -2 -10 2 0 5 -22 22 -50 38 -27 16 -50 33 -50 38 0 4 -4 6 -9
3 -5 -4 -11 -2 -13 2 -1 4 -34 30 -73 57 -125 87 -210 150 -213 157 -2 5 -8 8
-13 8 -5 0 -17 7 -26 15 -10 8 -47 37 -83 65 -36 28 -75 60 -87 71 l-22 21 62
61 c34 34 63 61 65 61 1 -1 30 25 63 57 34 33 66 59 72 59 6 0 8 3 4 6 -3 3 8
18 25 32 69 61 123 116 121 124 -2 4 1 8 7 8 16 0 60 42 60 57 0 8 5 11 10 8
6 -3 10 -2 10 2 0 10 56 73 65 73 3 0 42 36 86 80 44 44 85 78 90 74 5 -3 8
-2 7 3 -3 9 83 105 89 99 6 -6 73 63 73 74 0 6 6 10 14 10 8 0 18 9 21 20 3
11 13 20 20 20 8 0 28 20 45 44 31 46 37 62 20 51 -6 -3 -13 0 -16 9 -3 8 -12
12 -19 9 -8 -2 -20 -1 -27 3 -7 5 -17 9 -23 11 -5 1 -21 5 -35 8 -14 4 -31 7
-37 7 -7 1 -13 5 -13 10 0 4 -16 8 -35 8 -19 0 -35 5 -35 10 0 6 -11 10 -25
10 -14 0 -25 4 -25 9 0 5 -13 7 -30 6 -16 -1 -30 1 -30 5 0 4 -11 11 -25 14
-14 4 -25 11 -25 17 0 6 -7 6 -21 -1 -17 -9 -23 -8 -35 7 -7 10 -14 14 -14 9
0 -5 -6 -3 -14 3 -13 11 -48 19 -104 25 -13 1 -26 7 -30 12 -4 6 -15 10 -25 8
-9 -1 -17 2 -17 8 0 6 -7 8 -15 4 -8 -3 -15 -1 -15 4 0 5 -8 9 -17 9 -46 2
-59 5 -74 18 -9 7 -20 13 -25 12 -15 -3 -74 13 -74 20 0 4 -12 8 -26 9 -15 1
-33 7 -40 13 -8 6 -14 9 -14 6 0 -3 -15 -1 -32 4 -18 6 -44 12 -58 15 -14 3
-51 14 -83 25 -32 12 -61 18 -64 15 -4 -3 -14 1 -24 10 -10 9 -25 14 -33 11
-8 -3 -17 1 -20 8 -3 8 -14 12 -25 10 -11 -2 -25 3 -31 10 -8 10 -17 12 -29 5
-13 -6 -20 -3 -30 11 -10 17 -15 18 -27 9 -8 -7 -14 -8 -14 -4 0 12 -68 36
-97 35 -13 -1 -23 4 -23 9 0 5 -13 8 -29 6 -19 -2 -32 2 -35 10 -3 8 -12 11
-20 8 -8 -3 -25 0 -38 7 -25 14 -44 20 -70 22 -10 1 -18 4 -18 7 0 3 -8 6 -18
7 -25 2 -46 7 -52 13 -8 8 -75 30 -93 30 -9 0 -17 5 -17 10 0 6 -6 10 -12 8
-7 -1 -31 2 -53 7 -39 8 -45 9 -75 16 -8 2 -17 7 -20 11 -3 4 -15 9 -25 11
-32 6 -79 18 -95 24 -8 4 -17 7 -20 7 -3 1 -11 5 -18 10 -7 4 -25 9 -40 11
-14 1 -28 7 -30 13 -2 6 -10 8 -18 5 -8 -3 -20 -1 -27 5 -6 5 -24 9 -39 8 -14
-1 -24 2 -22 6 5 8 2 9 -33 12 -10 1 -24 5 -30 9 -7 5 -18 5 -23 2 -6 -3 -13
0 -16 8 -3 9 -16 13 -34 11 -16 -2 -35 2 -42 10 -7 7 -18 11 -24 9 -6 -2 -24
3 -40 12 -17 8 -30 11 -32 5 -2 -5 -10 -3 -19 5 -8 8 -19 12 -24 9 -6 -3 -19
2 -29 11 -10 9 -23 14 -29 11 -5 -4 -12 -2 -16 4 -3 5 -17 10 -31 10 -13 0
-24 4 -24 8 0 5 -14 9 -32 10 -17 0 -34 5 -37 10 -3 5 -14 8 -23 6 -10 -1 -20
1 -23 6 -3 4 -14 6 -25 3 -12 -3 -22 1 -26 10 -3 10 -14 14 -30 11 -13 -2 -24
0 -24 6 0 5 -13 10 -30 10 -16 0 -30 5 -30 11 0 6 -6 9 -12 6 -7 -2 -24 0 -38
6 -14 5 -35 11 -47 12 -12 1 -29 8 -38 15 -8 7 -15 9 -15 5 0 -4 -7 -2 -15 5
-9 7 -18 10 -22 7 -3 -3 -18 0 -33 8 -15 8 -37 12 -49 10 -12 -2 -19 0 -16 6
4 5 3 9 -2 10 -50 5 -76 11 -105 23 -9 4 -22 8 -30 10 -7 1 -19 5 -26 10 -7 4
-23 9 -35 11 -32 5 -59 12 -89 24 -16 6 -28 7 -28 3 0 -4 -5 0 -10 10 -6 9
-18 14 -29 11 -10 -3 -22 0 -25 6 -4 6 -20 11 -36 11 -16 0 -31 4 -35 9 -3 6
-13 10 -23 10 -42 2 -62 6 -62 11 0 3 -8 7 -18 8 -49 6 -57 8 -63 15 -3 5 -20
9 -37 9 -18 1 -32 5 -32 10 0 4 -9 8 -20 8 -11 0 -20 5 -20 11 0 7 -10 9 -26
6 -14 -2 -31 2 -39 10 -8 7 -17 14 -20 13 -30 -2 -45 2 -40 9 3 6 -2 8 -12 7
-10 -2 -29 1 -43 7 -14 5 -33 9 -43 8 -9 -1 -17 2 -17 7 0 5 -10 8 -23 8 -12
-1 -28 2 -34 7 -7 5 -24 6 -37 3 -21 -5 -25 -12 -23 -41 1 -19 5 -35 9 -35 4
0 5 -9 3 -20 -2 -11 0 -20 5 -20 5 0 8 -13 6 -30 -2 -16 1 -30 6 -30 6 0 8
-14 6 -30 -3 -19 0 -30 7 -30 7 0 11 -10 11 -22 -1 -13 2 -29 7 -35 5 -7 7
-20 3 -28 -3 -8 -2 -15 3 -15 8 0 9 -7 12 -55 1 -14 5 -25 9 -25 4 0 8 -15 9
-32 2 -18 3 -41 4 -50 1 -10 5 -18 8 -18 4 0 7 -14 7 -31 -1 -17 3 -34 8 -37
13 -10 14 -42 0 -42 -7 0 -7 -3 2 -8 7 -5 14 -17 16 -28 2 -10 9 -31 15 -46 7
-19 7 -28 -1 -30 -7 -3 -5 -9 4 -19 8 -8 13 -20 10 -27 -2 -6 0 -12 6 -12 5 0
9 -17 10 -37 1 -21 6 -39 10 -41 5 -1 7 -14 4 -27 -2 -14 0 -25 6 -25 6 0 11
-12 12 -27 2 -70 9 -104 30 -144 4 -8 3 -23 -2 -34 -8 -13 -7 -16 1 -11 12 8
13 5 15 -37 1 -16 7 -31 13 -35 8 -5 9 -13 3 -22 -6 -10 -3 -21 8 -34 9 -11
12 -16 5 -13 -7 5 -6 -4 4 -23 8 -17 13 -40 10 -51 -3 -10 -1 -17 4 -14 4 3 9
-9 9 -27 1 -57 4 -78 11 -78 4 0 6 -11 5 -25 -2 -15 1 -22 7 -18 6 4 8 0 4
-10 -6 -16 12 -77 24 -77 3 0 4 -11 1 -25 -2 -14 0 -25 6 -25 6 0 9 -10 7 -22
-3 -12 2 -32 10 -45 10 -14 11 -24 4 -28 -6 -5 -5 -15 6 -31 9 -14 13 -29 10
-34 -3 -6 -2 -10 4 -10 6 0 9 -14 7 -30 -2 -17 0 -33 5 -35 4 -3 6 -14 4 -25
-2 -11 1 -22 6 -25 5 -4 7 -11 4 -16 -4 -5 -1 -9 6 -9 8 0 9 -4 0 -13 -7 -9
-7 -17 0 -24 6 -6 11 -24 11 -41 1 -17 5 -29 10 -26 4 3 8 -9 8 -26 0 -17 4
-29 9 -26 5 4 7 -7 5 -24 -3 -18 -1 -30 6 -30 6 0 8 -11 6 -25 -3 -14 0 -25 5
-25 5 0 8 -13 7 -29 -1 -16 2 -35 8 -43 6 -7 9 -23 8 -36 0 -12 2 -22 7 -22 5
0 6 -7 3 -15 -4 -8 -1 -22 6 -30 6 -8 9 -19 5 -25 -3 -6 0 -24 9 -40 9 -18 10
-30 4 -30 -6 0 -5 -7 3 -16 14 -17 21 -43 22 -81 1 -13 5 -23 10 -23 4 0 6 -4
2 -9 -3 -5 -1 -13 5 -16 8 -5 8 -11 0 -20 -8 -10 -7 -14 2 -17 7 -3 13 -16 14
-29 0 -13 5 -41 11 -61 6 -21 10 -46 9 -55 -2 -10 0 -20 4 -23 15 -10 22 -50
8 -50 -9 -1 -8 -4 3 -10 11 -6 16 -20 14 -40 -1 -16 2 -30 7 -30 6 0 7 -7 4
-16 -3 -8 -2 -12 4 -9 10 6 14 -10 12 -53 -1 -12 4 -22 10 -22 6 0 8 -13 6
-30 -3 -19 0 -31 9 -34 10 -4 11 -11 4 -24 -7 -12 -7 -22 0 -29 11 -11 21 -49
20 -78 0 -10 4 -24 8 -30 5 -5 7 -21 6 -33 -1 -13 4 -26 11 -29 13 -5 13 -20
1 -39 -4 -7 0 -15 9 -18 10 -4 13 -13 9 -26 -4 -12 -2 -20 5 -20 6 0 9 -4 5
-9 -3 -5 0 -13 6 -17 8 -4 7 -9 -2 -15 -11 -7 -11 -9 -1 -9 7 0 10 -5 7 -10
-3 -6 -2 -10 3 -10 6 0 10 -10 11 -22 3 -68 7 -94 17 -100 5 -4 11 -26 13 -49
1 -23 6 -50 11 -60 6 -10 7 -25 4 -33 -3 -9 -1 -16 6 -16 7 0 9 -11 6 -30 -2
-17 0 -28 5 -24 5 3 9 -9 9 -26 0 -17 4 -29 8 -26 4 2 8 -5 9 -17 1 -21 10
-72 13 -72 1 0 6 -17 13 -47 1 -7 6 -18 10 -24 4 -7 7 -23 7 -35 1 -52 5 -79
14 -79 4 0 6 -7 2 -15 -3 -8 -1 -15 4 -15 5 0 7 -7 4 -15 -4 -8 -2 -15 2 -15
5 0 10 -12 11 -27 4 -60 8 -83 16 -83 4 0 7 -11 7 -25 0 -14 4 -25 8 -25 5 0
9 -17 10 -37 1 -20 5 -39 9 -42 10 -7 15 -27 18 -66 1 -16 3 -30 4 -30 2 0 4
-8 6 -18 4 -23 15 -35 15 -18 0 7 4 10 9 6 5 -3 12 4 16 15 4 11 10 18 15 15
5 -3 17 6 28 20 11 13 22 21 26 18 3 -3 6 -1 6 5 0 16 71 82 88 82 9 0 13 3
10 6 -3 3 21 31 54 62 33 31 84 81 114 111 30 30 54 51 54 48 0 -3 16 10 35
30 19 20 35 41 35 46 0 6 2 8 6 5 3 -3 35 23 71 58 36 35 66 64 67 64 2 0 39
35 84 78 154 148 212 201 212 195 0 -3 10 7 22 23 13 16 27 31 31 33 5 2 19
14 30 27 11 13 30 30 42 38 20 13 25 11 61 -20 21 -18 50 -43 64 -54 14 -11
41 -34 60 -50 19 -17 48 -40 63 -53 15 -12 38 -30 50 -40 12 -10 35 -28 51
-40 16 -12 42 -34 59 -50 16 -15 33 -27 36 -27 3 0 22 -14 41 -30 19 -16 41
-30 48 -30 7 0 10 -4 7 -10 -3 -6 -1 -10 5 -10 11 0 39 -20 90 -63 15 -13 40
-28 78 -48 12 -7 22 -16 22 -21 0 -4 6 -8 14 -8 8 0 16 -4 18 -8 8 -19 524
-355 546 -355 6 0 12 -4 12 -9 0 -4 7 -8 15 -8 8 0 15 -4 15 -10 0 -5 7 -10
15 -10 8 0 15 -5 15 -11 0 -5 4 -8 9 -4 5 3 16 -2 24 -10 9 -8 20 -15 26 -15
6 0 11 -4 11 -10 0 -5 7 -10 16 -10 9 0 28 -8 42 -19 48 -34 216 -122 228
-120 4 0 10 -3 13 -8 7 -11 96 -53 111 -53 5 0 10 -3 10 -7 0 -9 48 -33 66
-33 7 0 14 -4 16 -8 3 -7 52 -32 171 -86 28 -13 70 -32 92 -42 22 -10 46 -19
54 -20 8 -2 17 -8 21 -14 4 -7 9 -10 11 -9 2 2 24 -5 49 -16 25 -10 47 -19 50
-20 3 -1 19 -7 35 -14 35 -16 45 -20 149 -60 43 -17 84 -31 91 -31 8 0 15 -4
17 -9 2 -5 14 -11 28 -13 14 -1 28 -7 31 -11 3 -5 12 -10 20 -11 8 -2 21 -6
29 -9 30 -11 202 -69 213 -71 7 -2 25 -8 40 -14 16 -7 30 -12 32 -12 2 0 16
-5 32 -11 15 -7 35 -13 43 -14 8 -1 54 -14 102 -29 88 -28 111 -34 136 -35 7
-1 11 -5 8 -10 -4 -5 2 -8 11 -7 10 2 32 -1 48 -6 17 -5 41 -11 55 -14 14 -2
32 -7 40 -11 8 -3 22 -7 30 -9 8 -2 60 -15 115 -29 55 -15 108 -26 118 -26 9
0 17 -4 17 -9 0 -5 10 -7 21 -5 12 3 27 1 33 -3 6 -3 16 -7 21 -8 29 -6 65
-13 105 -23 62 -16 92 -22 115 -26 11 -1 36 -6 55 -9 19 -4 44 -9 55 -11 11
-2 20 -4 20 -5 0 -1 9 -3 20 -4 11 -1 38 -6 60 -10 44 -9 62 -12 115 -20 19
-3 44 -7 55 -10 25 -5 127 -20 140 -21 6 0 15 -3 20 -6 6 -2 27 -4 48 -4 20 1
37 -2 37 -5 0 -3 10 -6 23 -7 12 0 49 -3 82 -7 33 -4 76 -9 95 -11 139 -16
409 -35 563 -39 59 -2 110 -6 114 -9 3 -4 12 -2 20 4 7 6 13 8 13 3 0 -5 45
-9 100 -8 56 0 103 -3 106 -8 3 -4 13 -4 22 0 22 11 123 10 141 -2 9 -6 12 -5
8 1 -4 6 13 10 46 11 59 0 322 10 322 12 0 1 134 10 230 15 39 2 70 4 70 5 0
3 43 9 114 15 42 3 92 9 111 12 19 3 46 7 60 8 14 2 25 4 25 4 0 1 23 4 50 7
73 8 110 12 110 15 0 0 12 3 28 5 15 1 42 5 60 9 70 13 103 17 132 19 17 0 32
4 35 8 3 3 25 9 50 12 25 2 45 5 45 6 0 2 36 10 65 14 14 2 33 6 42 10 9 4 22
5 28 1 5 -3 10 -2 10 4 0 5 9 8 20 6 11 -2 20 0 20 5 0 5 9 7 20 5 11 -2 22 1
25 6 4 5 11 7 16 4 5 -4 15 -3 21 2 7 4 24 8 38 10 36 4 54 8 65 15 11 6 78
20 108 21 9 1 17 6 17 11 0 5 2 7 5 4 3 -2 38 4 78 14 39 10 81 20 92 22 11 2
63 15 115 30 52 16 102 29 110 31 8 2 27 8 43 14 15 6 27 8 27 5 0 -4 7 -1 15
6 8 7 15 9 15 6 0 -4 9 -2 21 4 11 6 30 14 42 16 12 3 27 6 32 7 6 2 15 5 20
8 9 6 57 19 70 20 2 0 17 6 32 14 14 8 30 12 35 9 4 -3 8 1 8 8 0 11 2 10 9 0
7 -11 9 -11 14 2 3 9 14 13 26 11 11 -2 25 3 31 11 7 7 16 11 21 8 5 -3 15 -2
22 3 6 4 14 8 17 8 3 1 23 9 45 19 22 10 45 19 50 20 46 12 65 19 65 25 0 4 6
8 13 8 21 2 172 58 175 66 2 4 12 7 22 7 10 0 21 4 24 9 3 5 17 12 30 15 14 3
53 19 88 35 35 16 73 32 86 36 12 3 22 11 22 16 0 5 7 9 15 9 9 0 33 9 54 20
21 10 41 16 45 13 3 -4 6 -1 6 5 0 7 5 12 11 12 13 0 341 161 349 171 3 3 50
30 105 59 55 28 119 63 143 77 23 14 42 21 42 16 0 -4 4 -3 8 3 7 11 125 84
139 86 4 1 17 10 27 20 11 10 26 18 33 18 7 0 13 5 13 10 0 6 4 10 9 10 8 0
101 58 127 79 20 17 179 118 187 120 4 0 16 9 26 19 29 26 43 35 74 51 15 8
27 18 27 23 0 4 5 8 11 8 6 0 32 17 58 38 25 21 58 44 74 51 15 8 27 18 27 23
0 4 5 8 10 8 6 0 16 5 23 10 49 42 65 54 90 66 15 8 27 18 27 22 0 5 18 18 39
30 22 12 41 26 43 30 5 12 86 72 97 72 6 0 11 7 11 15 0 8 4 15 8 15 5 0 20 9
33 20 26 22 25 20 89 70 25 19 50 42 57 50 6 8 15 15 20 15 4 0 24 16 44 35
82 79 141 130 150 130 6 0 7 5 4 10 -3 6 -2 10 3 10 5 0 43 31 83 70 41 38 77
70 82 70 4 0 7 7 7 15 0 8 4 15 9 15 11 0 206 195 326 325 44 48 91 99 105
113 21 23 98 113 195 231 11 13 33 38 48 55 16 17 36 42 45 56 9 14 22 29 29
33 7 4 13 13 13 19 0 6 11 21 25 34 14 13 25 25 25 28 0 7 27 41 57 73 12 13
20 23 17 23 -3 0 7 12 21 28 15 15 33 39 41 55 8 15 18 27 22 27 4 0 16 14 26
31 10 18 25 39 33 48 23 25 153 211 148 211 -5 0 18 30 42 55 7 7 10 15 7 17
-2 3 5 13 16 23 11 10 20 24 20 32 0 7 5 13 11 13 5 0 7 5 4 10 -3 6 -1 10 4
10 6 0 11 6 11 14 0 8 7 17 16 20 8 3 13 10 10 15 -4 5 -2 11 2 13 5 1 37 48
72 103 36 55 69 103 75 107 5 4 7 8 3 8 -4 0 8 25 27 55 19 30 35 58 35 63 0
5 6 15 14 21 8 7 17 24 21 39 4 15 10 29 14 32 4 3 22 32 41 65 19 33 38 63
44 67 6 4 8 8 4 8 -4 0 6 23 23 52 46 77 249 496 249 512 0 8 5 16 11 18 5 2
12 12 14 23 2 11 4 22 5 25 1 3 2 8 1 13 0 4 4 7 9 7 5 0 9 3 8 8 -1 4 3 17
10 28 6 12 8 24 5 28 -3 3 -1 6 5 6 7 0 12 4 12 9 0 5 5 22 12 38 6 15 12 30
13 33 1 3 9 23 20 45 10 22 19 45 20 50 3 10 84 221 100 260 5 11 9 22 10 25
7 31 30 88 38 98 5 7 7 15 4 18 -3 3 6 30 19 60 13 30 22 54 19 54 -2 0 7 29
20 65 13 36 21 65 18 65 -3 0 0 7 7 15 7 8 9 15 6 15 -4 0 -2 9 4 21 6 11 12
30 14 42 1 12 8 36 15 52 7 17 14 39 16 50 4 25 34 135 42 155 3 8 7 22 9 30
1 8 9 41 17 73 8 31 12 57 8 57 -3 0 -1 4 5 8 6 4 16 34 23 67 11 56 18 86 25
110 2 8 9 39 21 95 1 3 7 32 14 65 8 33 15 67 16 75 2 8 4 16 5 18 2 1 3 6 4
11 0 5 4 13 8 17 4 4 3 13 -3 21 -6 7 -7 13 -2 13 5 0 10 11 11 26 1 14 7 34
12 45 8 14 7 19 -1 19 -8 0 -8 4 1 15 7 8 10 22 6 30 -3 8 -1 15 3 15 5 0 8
11 6 25 -1 14 1 25 4 25 4 0 8 10 8 23 1 12 4 33 6 47 3 14 8 45 11 70 10 75
15 104 20 128 3 13 8 51 11 85 4 34 10 80 14 103 4 23 7 55 7 73 -1 17 1 31 4
31 3 0 6 17 6 38 1 20 4 66 8 102 4 36 9 103 11 150 2 47 5 85 5 85 1 0 4 32
6 70 2 39 5 87 6 108 2 20 -1 37 -6 37 -4 0 -4 6 2 13 11 13 13 727 3 727 -3
0 -7 37 -8 83 -4 150 -15 308 -29 422 -3 22 -6 47 -6 55 0 8 -4 44 -9 80 -4
36 -11 85 -14 110 -11 83 -14 105 -19 140 -13 79 -18 117 -21 147 -2 17 -6 37
-10 43 -4 7 -9 31 -11 54 -6 82 -13 119 -23 129 -5 5 -7 16 -4 23 3 8 2 22 -3
32 -4 9 -8 25 -8 34 -1 9 -4 19 -8 23 -4 4 -4 13 -2 20 3 7 0 16 -5 20 -6 3
-9 10 -7 14 3 4 -1 35 -9 68 -8 33 -16 71 -19 84 -28 137 -40 179 -48 179 -5
0 -7 4 -4 9 7 10 -25 104 -37 109 -4 2 -5 7 -2 12 3 4 -2 13 -10 20 -8 7 -15
17 -15 23 0 5 -11 25 -26 44 -14 18 -21 33 -17 33 4 0 3 4 -2 8 -6 4 -32 34
-57 67 -25 33 -61 72 -79 87 -19 14 -47 38 -64 52 -16 14 -34 26 -38 26 -4 0
-17 8 -27 18 -18 17 -104 64 -122 68 -5 1 -10 3 -13 4 -3 1 -9 4 -15 5 -5 1
-13 4 -17 5 -5 1 -11 2 -15 1 -5 0 -8 4 -8 10 0 5 -4 8 -9 5 -5 -4 -21 -2 -36
4 -25 9 -73 20 -105 24 -9 1 -20 5 -25 8 -6 3 -22 5 -37 4 -16 -1 -28 2 -28 5
0 9 -47 5 -56 -4 -3 -3 -16 -2 -29 3 -13 5 -25 7 -27 5z"/>
</g>
</svg>
